<?xml version="1.0" encoding="UTF-8" standalone="no"?>
<svg xmlns:rdf="http://www.w3.org/1999/02/22-rdf-syntax-ns#" xmlns="http://www.w3.org/2000/svg" height="324.839" width="324.84" version="1.1" xmlns:cc="http://creativecommons.org/ns#" xmlns:dc="http://purl.org/dc/elements/1.1/" viewBox="0 0 324.84 324.839">
<path d="M324.84,162.48A162.39708,162.39708,0,0,1,162.48,324.84C72.72,324.84,0,252.12,0,162.48A162.44826,162.44826,0,0,1,162.48,0C252.12,0,324.84,72.72,324.84,162.48Z" fill="#fff"/><path d="M318.84,162.48A156.3795,156.3795,0,0,1,162.48,318.84C76.08,318.84,6,248.75995,6,162.48A156.50752,156.50752,0,0,1,162.48,6C248.88,6,318.84,76.08,318.84,162.48Z" fill="#006bb6"/><polygon points="30.24 189 33.36 199.2 44.28 199.2 35.4 205.68 38.64 215.64 30.24 209.52 21.6 215.64 24.84 205.68 16.08 199.2 26.88 199.2 30.24 189" fill="#fff"/><polygon points="294.84 189 297.96 199.2 308.88 199.2 300 205.68 303.24 215.64 294.84 209.52 286.2 215.64 289.44 205.68 280.68 199.2 291.48 199.2 294.84 189" fill="#fff"/><polygon points="68.16 243.72 71.4 253.92 82.2 253.92 73.44 260.4 76.68 270.36 68.16 264.24 59.64 270.36 62.88 260.28 54 253.92 64.8 253.92 68.16 243.72" fill="#fff"/><polygon points="260.28 243.72 263.52 253.92 274.44 253.92 265.56 260.4 268.8 270.36 260.28 264.24 251.76 270.36 255 260.28 246.24 253.92 257.04 253.92 260.28 243.72" fill="#fff"/><polygon points="127.44 279.36 130.68 289.56 141.48 289.56 132.6 295.92 135.84 306 127.44 299.88 118.8 306 122.04 295.92 113.28 289.56 124.08 289.56 127.44 279.36" fill="#fff"/><polygon points="199.44 279.36 202.68 289.56 213.48 289.56 204.6 295.92 207.84 306 199.44 299.88 190.8 306 194.04 295.92 185.28 289.56 196.08 289.56 199.44 279.36" fill="#fff"/><path d="M279.6,163.2A117.18,117.18,0,1,1,162.48,45.96,117.227,117.227,0,0,1,279.6,163.2Z" fill="#fff"/><path d="M52.2,186.24a112.81642,112.81642,0,0,0,133.32,87.24c29.52-6.24,54.96-23.28,71.28-48.6a115.19546,115.19546,0,0,0,15.96-84.84c-5.88-29.4-23.4-54.6-48.6-71.16A112.68556,112.68556,0,0,0,52.2,186.24Z" fill="#006bb6"/><path d="M200.88,75.36c.36,4.32-1.68,8.64-6.12,12.72C173.64,72.6,153.48,65.04,133.8,64.92a81.9114,81.9114,0,0,0-12.36.96,98.60857,98.60857,0,0,1,19.44-6,104.29041,104.29041,0,0,1,52.32,2.28C196.8,65.64,200.4,70.2,200.88,75.36Z" fill="#fff"/><path d="M178.8,257.4c22.2-20.4,32.4-64.2,38.64-90.24l.96-4.08c3.12-13.2,8.76-23.16,14.76-29.16,22.32,34.56,19.32,70.32,13.68,92.75995a104.59765,104.59765,0,0,1-62.76,39.84,102.76151,102.76151,0,0,1-21.72,2.28A75.53751,75.53751,0,0,0,178.8,257.4Z" fill="#fff"/><path d="M219.12,109.08c9-7.55994,16.32-13.31995,21.36-17.04a104.05168,104.05168,0,0,1,23.76,42.84c-4.2-5.64-9.48-10.92-15.24-12.12-4.92-1.08-10.08.36-14.88,3.72A161.34808,161.34808,0,0,0,219.12,109.08Z" fill="#fff"/><path d="M58.8,158.4c10.32-27.6,47.88-38.76,62.04-42.96l.6-.24c4.68-1.43994,11.4-2.52,19.08-3.84,18.24-3.12,40.68-6.96,54.36-17.04a215.80688,215.80688,0,0,1,16.92,14.52c-30.72,26.04-78.24,69.96-129,123.84a106.71648,106.71648,0,0,1-23.76-47.88,109.88915,109.88915,0,0,1-2.16-21.6C58.08,160.43994,58.8,158.4,58.8,158.4Z" fill="#fff"/><path d="M215.52,105.6A202.22,202.22,0,0,0,198.6,91.08c5.28-5.04,7.56-10.43994,7.08-16.08a21.2783,21.2783,0,0,0-3.6-9.6,100.393,100.393,0,0,1,18.12,9.48A107.91148,107.91148,0,0,1,237,88.44C231.72,92.4,224.4,98.28,215.52,105.6Z" fill="#fff"/><path d="M190.8,91.31995c-12.72,8.76-33.84,12.36-51,15.36-7.92,1.32-14.76,2.4-19.68,3.96l-.6.24005c-13.56,3.96-47.76,14.16-61.8,38.75995a105.25162,105.25162,0,0,1,16.44-44.16,109.34,109.34,0,0,1,28.32-29.64C127.44,65.28,155.4,65.88,190.8,91.31995Z" fill="#fff"/><path d="M247.92,127.68c7.32,1.44,15.36,13.8,19.08,21a104.3718,104.3718,0,0,1-12.84,66.72,107.66857,107.66857,0,0,0,1.32-11.28,116.0108,116.0108,0,0,0-18.6-73.32C240.72,128.04,244.68,126.84,247.92,127.68Z" fill="#fff"/><path d="M215.4,112.2a129.79452,129.79452,0,0,1,14.88,17.52c-7.2,6.96-13.32,18.36-16.68,32.28l-.96,4.08c-6,25.56006-16.08,68.4-37.2,87.72-8.64,8.04-17.16,12.24-24.84,14.4A104.521,104.521,0,0,1,104.64,251.52,108.64859,108.64859,0,0,1,86.16,236.28C137.28,181.8,185.04,138,215.4,112.2Z" fill="#fff"/><path d="M191.52,194.52l2.88-.72009c1.68-.48,2.88-1.08,2.88-3.6,0-2.04-.6-5.76-3-5.76-2.76,0-2.76,4.44006-2.76,6.96Z" fill="#fff"/><path d="M157.2,192.96c0-9-.24-16.8-6.36-16.8-5.04,0-5.88,7.8-5.88,16.8s-.24,16.8,5.88,16.8C156,209.76,157.2,201.96,157.2,192.96Z" fill="#fff"/><path d="M191.52,194.52l2.88-.72009c1.68-.48,2.88-1.08,2.88-3.6,0-2.04-.6-5.76-3-5.76-2.76,0-2.76,4.44006-2.76,6.96Z" fill="#fff"/><path d="M144.24,172.2h.12c2.88-4.56,8.52-6.72,14.04-6.72,12.36,0,20.04,10.68,20.04,25.08,0,17.04-11.64,27.12-25.8,27.12-21.96,0-30-17.64-30-38.16,0-23.64,10.32-43.08,35.88-43.08,9.96,0,18.12,6.36,18.12,16.2,0,6.36-4.92,9.48-9.6,9.48-6.84,0-9-5.76-9.96-10.8-.48-2.16.36-6.84-3.24-6.84-7.44,0-8.64,14.52-8.88,19.8Z" fill="#fff"/><path d="M157.2,192.96c0-9-.24-16.8-6.36-16.8-5.04,0-5.88,7.8-5.88,16.8s-.24,16.8,5.88,16.8C156,209.76,157.2,201.96,157.2,192.96Z" fill="#fff"/><path d="M26.4,148.68c.48-3.48-.6-5.4-3.12-5.76-2.16-.24-3.84,1.08-4.08,3.72-.24,1.92.48,2.28,2.4,2.52l4.68.48A2.33911,2.33911,0,0,0,26.4,148.68Zm-2.16-11.4c4.2.6,6,3.48,5.28,8.88L29.04,150l2.28.36c2.88.36,3.96.24,4.32-2.04l2.64.36-1.32,10.56L34.32,159c.24-2.4-.84-2.64-3.72-3l-8.28-.96c-2.88-.36-3.96-.36-4.32,2.04l-2.52-.36,1.32-11.76C17.4,139.31995,20.04,136.79993,24.24,137.28Z" fill="#fff"/><path d="M39.84,125.4c.84-2.16,0-2.76-2.64-3.84l-7.8-3.24c-2.64-1.08-3.72-1.31995-4.68.84l-2.52-1.08,4.2-9.84,2.4.96c-.84,2.16,0,2.76,2.64,3.84l2.04.84,3.12-7.44006-2.04-.84c-2.76-1.08-3.72-1.32-4.68.84l-2.4-.96,4.08-9.84,2.52.96c-.84,2.28,0,2.88,2.64,3.96L44.4,103.8c2.76,1.08,3.84,1.32,4.8-.84l2.4,1.08-4.08,9.84-2.4-.96c.84-2.16-.12-2.76-2.64-3.84L39,107.64l-3,7.44,3.36,1.32c2.64,1.2,3.72,1.44,4.68-.72l2.4.96-4.08,9.84Z" fill="#fff"/><path d="M50.28,72.72c-1.32,1.92-.6,2.76,1.8,4.44l6.6,5.04c2.4,1.68005,3.36,2.28,4.8.36l2.16,1.56-6.48,8.64L57,91.2c1.32-1.92.6-2.75995-1.8-4.43994l-6.6-5.04c-2.4-1.68-3.36-2.28-4.8-.36L41.64,79.8l6.48-8.64Z" fill="#fff"/><path d="M74.52,74.04,72.84,72c1.68-1.56,1.2-2.52-.72-4.8l-5.4-6.36c-1.92-2.28-2.64-3-4.44-1.56l-1.8-2.04,8.28-6.84,1.68,2.04c-1.68,1.56-1.2,2.4.72,4.68l6,7.08c1.44,1.68005,2.04,2.04,3.72.48,2.28-1.8,3.24-5.28,2.4-9.48l2.4-.6,2.4,7.92Z" fill="#fff"/><path d="M108,39.12l-4.56-4.92.36,6.84Zm-7.92,15.24L99,51.96c2.04-1.32,1.92-2.64,1.8-4.92l-.6-16.68,4.56-2.04,12.36,12.12c1.44,1.32007,2.16,2.04,4.08,1.44006l1.08,2.4-9.84,4.44-.96-2.4.12-.12c1.44-.6,1.92-1.2,1.56-1.92a2.15305,2.15305,0,0,0-.6-.84l-2.28-2.28-6.24,2.88.36,3.24c0,.12,0,.48.12.6.48.96,1.32,1.08,2.88.36l1.08,2.4Z" fill="#fff"/><path d="M141,34.44c.24,2.16.6,2.64,2.88,2.4,4.32-.6,6.6-3.96,6-9.24-.84-5.16-3.96-7.8-8.28-7.2-2.28.24-2.4.96-2.16,3Zm-7.8,3.84c2.4-.48,2.4-1.56,2.04-4.44l-1.2-8.28c-.36-2.88-.84-3.96-3.12-3.6l-.36-2.64L141.48,17.76c8.28-1.2,13.32,2.04,14.28,9,.96,6.84-2.88,11.4-11.28,12.6l-10.8,1.56Z" fill="#fff"/><path d="M171,35.04c2.4.36,2.76-.72,3.12-3.6l1.2-8.16c.48-2.88.36-4.08-1.92-4.44l.36-2.64,17.88,2.64,1.92,6.96-2.16.72q-2.7-5.4-7.56-6.12c-2.04-.36-2.52.24-2.76,2.4l-.48,3,1.08.24c2.16.24,2.88-.36,3.36-3l2.28.36-1.44,9.72-2.28-.24c.12-2.64-.6-3.84-2.4-4.08l-.96-.12-.84,4.92c-.24,2.16,0,2.88,2.04,3.12,3.24.48,6.96-1.08,9.84-4.56l1.92,1.44-4.32,6.84-18.24-2.76Z" fill="#fff"/><path d="M204.84,44.64l.96-2.52c2.28.96,2.88,0,3.96-2.64l3.36-7.68c1.08-2.64,1.44-3.72-.72-4.8l1.08-2.4,9.84,4.2-1.08,2.52c-2.16-.84-2.76,0-3.96,2.76l-3.72,8.52c-.96,1.92-.84,2.64,1.2,3.48,2.64,1.2,6.24.6,9.6-2.04l1.44,1.8-6,5.76Z" fill="#fff"/><path d="M249.12,56.28q4.14006,3.42,6.48.36c1.44-1.68,1.08-3.84-.96-5.4-1.44-1.2-2.16-.84-3.36.72l-3,3.6C248.52,55.8,248.88,56.04,249.12,56.28Zm10.8,4.2c-2.64,3.24-6,3.12-10.32-.24l-3-2.52-1.44,1.68c-1.8,2.28-2.28,3.24-.48,4.8L243,66.24l-8.4-6.72,1.68-2.04c1.8,1.32,2.64.72,4.44-1.56L246,49.44c1.8-2.28,2.28-3.24005.48-4.8l1.68-2.04,9.24,7.44C261.84,53.64,262.68,57.24,259.92,60.48Z" fill="#fff"/><path d="M261.6,80.04c1.44,1.92,2.4,1.44,4.68-.24l6.96-4.8c2.4-1.56,3.12-2.4,1.8-4.32l2.16-1.56L283.44,78l-2.16,1.44c-1.44-1.8-2.4-1.44-4.8.24l-1.8,1.2,4.68,6.6,1.8-1.2c2.4-1.68,3.12-2.4,1.92-4.44l2.16-1.56,6.12,8.88L289.2,90.6c-1.44-1.8-2.4-1.32-4.8.24l-6.84,4.8c-2.4,1.68-3.12,2.4-1.92,4.44l-2.16,1.56L267.36,92.76,269.52,91.2c1.44,1.92,2.4,1.44,4.68-.12l3-2.16-4.56-6.6-3,2.16c-2.4,1.56-3.24,2.4-1.92,4.32l-2.16,1.56-6.12-8.88Z" fill="#fff"/><path d="M300.6,117c-.84-2.16-1.92-1.92-4.56-.84l-7.8,3c-2.76,1.08-3.6,1.56-2.88,3.84l-2.52.96L279,113.88l2.52-.96c.96,2.16,1.92,1.92,4.68.96l7.8-3c2.64-1.08,3.6-1.68005,2.88-3.84l2.4-.96,3.84,9.96Z" fill="#fff"/><path d="M298.8,147.72l6.12-3-6.72-1.68ZM286.68,135.6l2.52-.36c.6,2.4,2.04,2.64,4.2,3.24l16.08,4.32.72,4.92L294.96,156c-1.68,1.08-2.64,1.56-2.52,3.48l-2.64.36-1.44-10.56,2.64-.48v.24c.24,1.56.6,2.16,1.44,2.04a2.82424,2.82424,0,0,0,.96-.24l2.88-1.56-.96-6.84-3.12-.6h-.72c-1.08.24-1.32.96-1.2,2.64l-2.52.36Z" fill="#fff"/><path d="M228.36,176.88a7.56018,7.56018,0,0,0-5.64,2.52,7.08256,7.08256,0,0,0-.48-.96l-1.2-2.16-16.8,4.92v9.24h3.6c.24.24005.48,1.08008.48,3.96v10.68l-3.12.48v10.08h23.4V205.56l-3.12-.48v-3.12a40.30434,40.30434,0,0,1,.84-7.31995,11.36762,11.36762,0,0,0,3.12.48c4.2,0,7.08-3.72,7.08-9.12C236.4,180.6,233.16,176.88,228.36,176.88Z" fill="#fff"/><path d="M257.64,187.68a5.41747,5.41747,0,0,1-.36-1.56c0-2.76-1.08-9.24-11.28-9.24-5.64,0-16.8,4.31995-16.8,14.4a13.6205,13.6205,0,0,0,2.76,8.52c-2.28,1.20007-3.6,3.84009-3.6,6.96,0,3.6,1.8,9.72,14.04,9.72,10.44,0,16.56-5.4,16.56-14.88C258.84,192.6,258.12,189.6,257.64,187.68Z" fill="#fff"/><path d="M134.28,133.43994a3.23932,3.23932,0,0,0-2.64-1.2c-1.56,0-2.76.96-4.2,2.52a26.23159,26.23159,0,0,1-19.56,8.04c-10.2,0-20.88-4.68-29.4-12.84a3.198,3.198,0,0,0-2.4-1.08c-4.2,0-5.28,6.72-5.28,6.72v33.48l2.64.36c10.08,1.56006,18.72,1.2,26.64-.96-8.52,7.68-27.84,28.56-27.48,48.36,0,3.72,2.28,4.08,3.24,4.08a4.88851,4.88851,0,0,0,2.64-1.08,1.65675,1.65675,0,0,1,.48-.36c2.64-2.04,7.2-3.24,12.24-3.24a27.39564,27.39564,0,0,1,11.28,2.28,4.10961,4.10961,0,0,0,2.16.48,3.02122,3.02122,0,0,0,2.4-1.08,4.85174,4.85174,0,0,0,.96-3.6c-1.44-14.4,1.68-30.12,7.8-39.24l.96-1.44c5.28-7.68,16.08-23.75995,18.12-37.08A3.18993,3.18993,0,0,0,134.28,133.43994Z" fill="#fff"/><path d="M198.72,203.16a2.91414,2.91414,0,0,1-2.52-1.68l6-1.68005C200.52,201.84,199.2,203.04,198.72,203.16Zm13.08-5.88-.12-2.52a19.10737,19.10737,0,0,0-.72-4.68l-.12-3-.48.84c-2.52-6.84-8.16-11.04-15.36-11.04-10.8,0-18.36,8.52-18.36,20.75995,0,9.36,5.4,18.96,17.76,18.96a19.4511,19.4511,0,0,0,16.8-9.24l.48-.72-.48-9.12Z" fill="#fff"/><path d="M171.6,167.64c-.6-.84009-1.32-1.8-1.92-2.64a12.00421,12.00421,0,0,0,9.96-12.36c0-11.04-9.12-19.32007-21.24-19.32007-24.36,0-39,17.28-39,46.20007,0,26.27991,12.12,41.27991,33,41.27991,17.04,0,29.04-12.36,29.04-30.23993C181.44,181.67993,175.56,173.28,171.6,167.64Z" fill="#fff"/><path d="M191.64,191.28c0-2.4,0-6.96,2.64-6.96,2.52,0,3.12,3.84,3.12,5.88,0,2.4-1.2,3-3,3.48l-2.76.72Zm7.2,15c-3.84,0-6-3.48-6.36-6.96L208.68,195c-.48-7.92-5.04-15-13.68-15-9.12,0-15.24,7.2-15.24,17.75995,0,8.28,4.68,15.72,14.64,15.72a16.32838,16.32838,0,0,0,14.28-7.68005l-3.24-3.84C203.76,204.36,201.84,206.28,198.84,206.28Z" fill="#006bb6"/><path d="M225.48,212.52H208.32V208.2l3.12-.48V194.28c0-4.8-.6-7.08-4.08-7.08v-3.72l12.12-3.6c1.44,2.64,1.8,5.75995,2.04,8.75995h.12c1.2-3.6,2.76-8.75995,6.72-8.75995,3.48,0,5.04,2.75995,5.04,6,0,3.36-1.44,6.12-3.96,6.12a9.89711,9.89711,0,0,1-4.08-1.08c-2.28-.72-2.88,8.87994-2.88,10.92v5.88l3,.48Z" fill="#006bb6"/><path d="M254.28,186.24c0,2.64-2.4,3.96-4.8,3.96-2.88,0-5.04-2.4-5.52-5.28-1.32,0-2.16.72-2.16,2.75995,0,4.92,14.04,1.44006,14.04,14.04,0,9.48-6.84,11.76-13.44,11.76-3.96,0-10.92-.48-10.92-6.6,0-2.76,1.56-4.8,4.32-4.8,4.2,0,5.04,3.84,5.64,6.6a1.30339,1.30339,0,0,0,1.44.84c2.28,0,3.96-.84,3.96-2.4,0-5.64-14.4-3.48-14.4-15.72,0-7.8,9.24-11.28,13.56-11.28C251.04,180.12,254.28,181.79993,254.28,186.24Z" fill="#006bb6"/><path d="M150.84,209.75995c-6.12,0-5.88-7.8-5.88-16.8s.84-16.8,5.88-16.8c6.12,0,6.36,7.8,6.36,16.8S156,209.75995,150.84,209.75995Zm7.56-44.16c-5.52,0-11.04,2.16-14.04,6.72h-.12l.6-7.92c.24-5.4,1.44-19.92,8.88-19.92,3.6,0,2.76,4.8,3.12,6.96.96,5.04,3.24,10.8,10.08,10.8,4.68,0,9.6-3.12,9.6-9.48,0-9.84-8.16-16.32007-18.12-16.32007-25.56,0-35.88,19.56006-35.88,43.2,0,20.4,7.92,38.16,29.88,38.16,14.28,0,25.8-10.2,25.8-27.12C178.44,176.28,170.88,165.6,158.4,165.6Z" fill="#006bb6"/><path d="M74.04,136.08v30.36c17.04,2.64,37.44.84,51.72-20.16.6-.84.96-.24.6.6-4.08,8.16-13.56,15.72-21.72,22.2-7.92,6.12-29.16,28.32-28.8,48,0,1.44006,0,1.08,1.32,0,6.48-4.8,19.08-4.92,26.76-1.2,1.08.6,1.08.36,1.08-1.08008C103.44,199.68,106.92,183.12,113.4,173.52c4.44-6.72009,16.44-23.76,18.6-37.20007.24-1.43994-.6-1.2-2.28.72-13.68,14.4-38.28,14.04-54.24-1.2C74.52,134.76,74.04,135.24,74.04,136.08Z" fill="#ed174c"/><path d="M132.72,117.84a29.16,29.16,0,1,1-29.16-29.16A29.1916,29.1916,0,0,1,132.72,117.84Z" fill="#fff"/><polygon points="103.56 89.64 104.52 92.76 107.88 92.76 105.12 94.68 106.08 97.68 103.56 95.88 100.92 97.68 101.88 94.68 99.24 92.76 102.6 92.76 103.56 89.64" fill="#006bb6"/><polygon points="123 100.92 123.96 104.04 127.2 104.04 124.68 106.08 125.64 109.08 123 107.16 120.36 109.08 121.44 106.08 118.68 104.04 122.04 104.04 123 100.92" fill="#006bb6"/><polygon points="114.6 92.28 115.68 95.28 118.92 95.28 116.28 97.2 117.24 100.32 114.6 98.4 112.08 100.32 113.04 97.2 110.4 95.28 113.64 95.28 114.6 92.28" fill="#006bb6"/><polygon points="126.12 111.6 127.2 114.72 130.44 114.72 127.8 116.64 128.76 119.76 126.24 117.84 123.6 119.76 124.56 116.64 121.8 114.72 125.16 114.72 126.12 111.6" fill="#006bb6"/><polygon points="124.8 123 125.76 126 129 126 126.36 128.04 127.32 131.04 124.8 129.24 122.28 131.04 123.12 128.04 120.48 126 123.84 126 124.8 123" fill="#006bb6"/><polygon points="118.56 132 119.52 135.12 122.88 135.12 120.12 137.04 121.08 140.04 118.56 138.24 115.92 140.04 116.88 137.04 114.24 135.12 117.48 135.12 118.56 132" fill="#006bb6"/><polygon points="108.72 137.04 109.68 140.16 113.04 140.16 110.28 142.08 111.24 145.2 108.72 143.28 106.08 145.2 107.04 142.08 104.4 140.16 107.64 140.16 108.72 137.04" fill="#006bb6"/><polygon points="83.76 99.96 82.8 103.08 79.44 103.08 82.08 105 81.12 108 83.76 106.2 86.4 108 85.32 105 88.08 103.08 84.72 103.08 83.76 99.96" fill="#006bb6"/><polygon points="91.8 92.28 90.84 95.28 87.6 95.28 90.24 97.2 89.28 100.32 91.8 98.4 94.44 100.32 93.48 97.2 96.24 95.28 92.88 95.28 91.8 92.28" fill="#006bb6"/><polygon points="79.92 110.28 79.08 113.4 75.6 113.4 78.36 115.32 77.4 118.44 79.92 116.4 82.56 118.44 81.6 115.32 84.24 113.4 81 113.4 79.92 110.28" fill="#006bb6"/><polygon points="81 121.56 80.04 124.68 76.68 124.68 79.44 126.6 78.48 129.72 81 127.8 83.64 129.72 82.56 126.6 85.2 124.68 81.96 124.68 81 121.56" fill="#006bb6"/><polygon points="87.24 130.8 86.28 133.92 82.92 133.92 85.68 135.84 84.6 138.84 87.24 137.04 89.88 138.84 88.8 135.84 91.56 133.92 88.2 133.92 87.24 130.8" fill="#006bb6"/><polygon points="97.08 136.68 96 139.8 92.76 139.8 95.4 141.72 94.44 144.84 97.08 142.92 99.6 144.84 98.64 141.72 101.4 139.8 98.04 139.8 97.08 136.68" fill="#006bb6"/></svg>